<svg width="14" height="14" viewBox="0 0 14 14" fill="none" xmlns="http://www.w3.org/2000/svg">
<path d="M5.58247 10.9783C5.47163 10.9783 5.3608 10.9374 5.2733 10.8499L1.73247 7.30911C1.5633 7.13995 1.5633 6.85995 1.73247 6.69078L5.2733 3.14995C5.44247 2.98078 5.72247 2.98078 5.89163 3.14995C6.0608 3.31911 6.0608 3.59911 5.89163 3.76828L2.65997 6.99995L5.89163 10.2316C6.0608 10.4008 6.0608 10.6808 5.89163 10.8499C5.80997 10.9374 5.6933 10.9783 5.58247 10.9783Z" fill="#292D32"/>
<path d="M11.9584 7.4375H2.14087C1.9017 7.4375 1.70337 7.23917 1.70337 7C1.70337 6.76083 1.9017 6.5625 2.14087 6.5625H11.9584C12.1975 6.5625 12.3959 6.76083 12.3959 7C12.3959 7.23917 12.1975 7.4375 11.9584 7.4375Z" fill="#292D32"/>
</svg>
