<svg width="14" height="15" viewBox="0 0 14 15" fill="none" xmlns="http://www.w3.org/2000/svg">
<path d="M8.41749 11.259C8.30665 11.259 8.19582 11.2182 8.10832 11.1307C7.93915 10.9615 7.93915 10.6815 8.10832 10.5124L11.34 7.28071L8.10832 4.04904C7.93915 3.87987 7.93915 3.59987 8.10832 3.43071C8.27749 3.26154 8.55749 3.26154 8.72665 3.43071L12.2675 6.97154C12.4367 7.14071 12.4367 7.42071 12.2675 7.58987L8.72665 11.1307C8.63915 11.2182 8.52832 11.259 8.41749 11.259Z" fill="#292D32"/>
<path d="M11.8591 7.71826H2.04163C1.80246 7.71826 1.60413 7.51993 1.60413 7.28076C1.60413 7.0416 1.80246 6.84326 2.04163 6.84326H11.8591C12.0983 6.84326 12.2966 7.0416 12.2966 7.28076C12.2966 7.51993 12.0983 7.71826 11.8591 7.71826Z" fill="#292D32"/>
</svg>
