<svg width="17" height="17" viewBox="0 0 17 17" fill="none" xmlns="http://www.w3.org/2000/svg">
<path d="M8.49996 13.4229C6.64413 13.4229 5.13538 11.9141 5.13538 10.0583C5.13538 8.20248 6.64413 6.69373 8.49996 6.69373C10.3558 6.69373 11.8645 8.20248 11.8645 10.0583C11.8645 11.9141 10.3558 13.4229 8.49996 13.4229ZM8.49996 7.75623C7.23204 7.75623 6.19788 8.79039 6.19788 10.0583C6.19788 11.3262 7.23204 12.3604 8.49996 12.3604C9.76788 12.3604 10.802 11.3262 10.802 10.0583C10.802 8.79039 9.76788 7.75623 8.49996 7.75623Z" fill="#777F90"/>
<path d="M8.10329 11.213C7.87662 11.213 7.64996 11.128 7.47996 10.958L7.01954 10.4975C6.81412 10.2921 6.81412 9.95213 7.01954 9.74671C7.22496 9.5413 7.56496 9.5413 7.77037 9.74671L8.11037 10.0867L9.25079 9.03838C9.46329 8.84005 9.80329 8.85421 10.0016 9.06671C10.2 9.27921 10.1858 9.61921 9.97329 9.81755L8.71246 10.9792C8.53537 11.135 8.32287 11.213 8.10329 11.213Z" fill="#777F90"/>
<path d="M11.3333 16.1146H5.66662C2.39412 16.1146 1.78496 14.5917 1.62912 13.1112L1.09787 7.4375C1.01996 6.69375 0.998708 5.59583 1.73537 4.77416C2.37287 4.06583 3.42829 3.72583 4.95829 3.72583H12.0416C13.5787 3.72583 14.6341 4.07291 15.2645 4.77416C16.0012 5.59583 15.98 6.69375 15.902 7.44458L15.3708 13.1042C15.215 14.5917 14.6058 16.1146 11.3333 16.1146ZM4.95829 4.78125C3.76121 4.78125 2.93954 5.015 2.52162 5.4825C2.17454 5.865 2.06121 6.45291 2.15329 7.33125L2.68454 13.005C2.80496 14.1242 3.10954 15.0521 5.66662 15.0521H11.3333C13.8833 15.0521 14.195 14.1242 14.3154 12.9979L14.8466 7.33833C14.9387 6.45291 14.8254 5.865 14.4783 5.4825C14.0604 5.015 13.2387 4.78125 12.0416 4.78125H4.95829Z" fill="#777F90"/>
<path d="M11.3333 4.78121C11.0429 4.78121 10.802 4.54038 10.802 4.24996V3.68329C10.802 2.42246 10.802 1.94788 9.06663 1.94788H7.93329C6.19788 1.94788 6.19788 2.42246 6.19788 3.68329V4.24996C6.19788 4.54038 5.95704 4.78121 5.66663 4.78121C5.37621 4.78121 5.13538 4.54038 5.13538 4.24996V3.68329C5.13538 2.43663 5.13538 0.885376 7.93329 0.885376H9.06663C11.8645 0.885376 11.8645 2.43663 11.8645 3.68329V4.24996C11.8645 4.54038 11.6237 4.78121 11.3333 4.78121Z" fill="#777F90"/>
<path d="M11.3404 10.1929C11.0996 10.1929 10.8871 10.03 10.8233 9.78916C10.7525 9.50582 10.9225 9.21541 11.2058 9.14457C12.5871 8.79749 13.8691 8.19541 15.0166 7.35957C15.2504 7.18957 15.5833 7.23916 15.7604 7.47999C15.9304 7.71374 15.8808 8.04666 15.64 8.22374C14.3791 9.13749 12.9766 9.79624 11.4608 10.1787C11.4254 10.1858 11.3829 10.1929 11.3404 10.1929Z" fill="#777F90"/>
<path d="M5.66669 10.2142C5.62419 10.2142 5.58169 10.2071 5.53919 10.2C4.11544 9.85293 2.77669 9.25085 1.55127 8.41502C1.31044 8.2521 1.24669 7.91918 1.40961 7.67835C1.57252 7.43752 1.90544 7.37377 2.14627 7.53668C3.26544 8.30168 4.48377 8.8471 5.78711 9.16585C6.07044 9.23668 6.24752 9.52002 6.17669 9.81043C6.12711 10.0513 5.90752 10.2142 5.66669 10.2142Z" fill="#777F90"/>
</svg>
