<svg width="31" height="30" viewBox="0 0 31 30" fill="none" xmlns="http://www.w3.org/2000/svg">
<path d="M22.675 28.4376H10.05C9.66252 28.4376 9.31252 28.2001 9.17502 27.8251C9.03752 27.4501 9.13751 27.0501 9.43751 26.7876C10.3125 26.0126 10.825 24.9 10.825 23.7375C10.825 21.5 9.00001 19.675 6.76251 19.675C5.83751 19.675 4.96251 19.9876 4.22501 20.5751C3.93751 20.8001 3.56252 20.8375 3.23752 20.6875C2.91252 20.5375 2.71252 20.2001 2.71252 19.8376V14.3751C2.71252 11.2626 5.23752 8.73755 8.35002 8.73755H22.7C25.8125 8.73755 28.3375 11.2626 28.3375 14.3751V16.1751C28.3375 16.6876 27.9125 17.1126 27.4 17.1126H24.875C24.4375 17.1126 24.0375 17.2751 23.75 17.5751L23.7375 17.5876C23.3875 17.9251 23.225 18.3876 23.2625 18.8626C23.3375 19.6876 24.125 20.3501 25.025 20.3501H27.4C27.9125 20.3501 28.3375 20.7751 28.3375 21.2876V22.775C28.3125 25.9125 25.7875 28.4376 22.675 28.4376ZM11.975 26.5626H22.675C24.75 26.5626 26.4375 24.875 26.4375 22.8V22.25H25C23.1125 22.25 21.5125 20.85 21.3625 19.05C21.2625 18.025 21.6375 17.0126 22.3875 16.2751C23.0375 15.6126 23.9125 15.2501 24.85 15.2501H26.4375V14.3876C26.4375 12.3126 24.75 10.6251 22.675 10.6251H8.32501C6.25001 10.6251 4.56252 12.3126 4.56252 14.3876V18.2376C5.26252 17.9626 6.00002 17.8126 6.75002 17.8126C10.025 17.8126 12.6875 20.4751 12.6875 23.7501C12.6875 24.7376 12.4375 25.7126 11.975 26.5626Z" fill="#21577A"/>
<path d="M3.625 15.3252C3.1125 15.3252 2.6875 14.9002 2.6875 14.3877V9.8002C2.6875 7.9377 3.85001 6.23763 5.58751 5.58763L15.5125 1.83763C16.5375 1.46263 17.6875 1.6002 18.575 2.2252C19.4625 2.8502 20 3.86268 20 4.93768V9.68766C20 10.2002 19.575 10.6252 19.0625 10.6252C18.55 10.6252 18.125 10.2002 18.125 9.68766V4.93768C18.125 4.46268 17.9 4.03767 17.5125 3.76268C17.1125 3.48768 16.625 3.42516 16.175 3.58766L6.25001 7.33766C5.22501 7.72516 4.5625 8.6877 4.5625 9.8002V14.3877C4.5625 14.9002 4.1375 15.3252 3.625 15.3252Z" fill="#21577A"/>
<path d="M25 22.25C23.1125 22.25 21.5125 20.85 21.3625 19.05C21.2625 18.0125 21.6375 17 22.3875 16.2625C23.025 15.6125 23.9 15.25 24.8375 15.25H27.4375C28.675 15.2875 29.625 16.2624 29.625 17.4624V20.0375C29.625 21.2375 28.675 22.2125 27.475 22.25H25ZM27.4125 17.125H24.85C24.4125 17.125 24.0125 17.2875 23.725 17.5875C23.3625 17.9375 23.1875 18.4125 23.2375 18.8875C23.3125 19.7125 24.1 20.375 25 20.375H27.45C27.6125 20.375 27.7625 20.225 27.7625 20.0375V17.4624C27.7625 17.2749 27.6125 17.1375 27.4125 17.125Z" fill="#21577A"/>
<path d="M18 15.9375H9.25C8.7375 15.9375 8.3125 15.5125 8.3125 15C8.3125 14.4875 8.7375 14.0625 9.25 14.0625H18C18.5125 14.0625 18.9375 14.4875 18.9375 15C18.9375 15.5125 18.5125 15.9375 18 15.9375Z" fill="#21577A"/>
<path d="M6.75 29.6875C3.475 29.6875 0.8125 27.025 0.8125 23.75C0.8125 21.925 1.625 20.2375 3.0375 19.1125C4.0875 18.275 5.4125 17.8125 6.75 17.8125C10.025 17.8125 12.6875 20.475 12.6875 23.75C12.6875 25.45 11.95 27.075 10.675 28.2C9.575 29.1625 8.1875 29.6875 6.75 29.6875ZM6.75 19.6875C5.825 19.6875 4.95 20 4.2125 20.5875C3.25 21.35 2.6875 22.5125 2.6875 23.75C2.6875 25.9875 4.5125 27.8125 6.75 27.8125C7.725 27.8125 8.67499 27.45 9.43749 26.8C10.3125 26.025 10.8125 24.925 10.8125 23.75C10.8125 21.5125 8.9875 19.6875 6.75 19.6875Z" fill="#21577A"/>
<path d="M5.49985 25.9375C5.18735 25.9375 4.87485 25.775 4.69985 25.4875C4.43735 25.0375 4.57485 24.4625 5.02485 24.2L6.13735 23.5375V22.1875C6.13735 21.675 6.56235 21.25 7.07485 21.25C7.58735 21.25 8.01235 21.675 8.01235 22.1875V24.0625C8.01235 24.3875 7.83735 24.7 7.56235 24.8625L5.99985 25.8C5.83735 25.9 5.66235 25.9375 5.49985 25.9375Z" fill="#21577A"/>
</svg>
