<svg width="14" height="14" viewBox="0 0 14 14" fill="none" xmlns="http://www.w3.org/2000/svg">
<path d="M5.52418 8.91333C5.41335 8.91333 5.30252 8.8725 5.21502 8.785C4.73668 8.30667 4.47418 7.67083 4.47418 7C4.47418 5.60583 5.60585 4.47417 7.00002 4.47417C7.67085 4.47417 8.30668 4.73667 8.78502 5.215C8.86668 5.29667 8.91335 5.4075 8.91335 5.52417C8.91335 5.64083 8.86668 5.75167 8.78502 5.83333L5.83335 8.785C5.74585 8.8725 5.63502 8.91333 5.52418 8.91333ZM7.00002 5.34917C6.09002 5.34917 5.34918 6.09 5.34918 7C5.34918 7.29167 5.42502 7.57167 5.56502 7.81667L7.81668 5.565C7.57168 5.425 7.29168 5.34917 7.00002 5.34917Z" fill="#777F90"/>
<path d="M3.26664 10.7975C3.16747 10.7975 3.06247 10.7625 2.9808 10.6925C2.35664 10.1617 1.79664 9.50833 1.3183 8.75C0.69997 7.7875 0.69997 6.21833 1.3183 5.25C2.74164 3.02167 4.81247 1.73833 6.99997 1.73833C8.2833 1.73833 9.54914 2.18167 10.6575 3.01583C10.85 3.16167 10.8908 3.43583 10.745 3.62833C10.5991 3.82083 10.325 3.86167 10.1325 3.71583C9.1758 2.9925 8.0908 2.61333 6.99997 2.61333C5.1158 2.61333 3.3133 3.745 2.0533 5.7225C1.6158 6.405 1.6158 7.595 2.0533 8.2775C2.4908 8.96 2.99247 9.54917 3.54664 10.0275C3.72747 10.185 3.7508 10.4592 3.5933 10.6458C3.51164 10.745 3.38914 10.7975 3.26664 10.7975Z" fill="#777F90"/>
<path d="M7 12.2617C6.22416 12.2617 5.46583 12.1042 4.73666 11.795C4.515 11.7017 4.41 11.445 4.50333 11.2233C4.59666 11.0017 4.85333 10.8967 5.075 10.99C5.69333 11.2525 6.34083 11.3867 6.99416 11.3867C8.87833 11.3867 10.6808 10.255 11.9408 8.2775C12.3783 7.595 12.3783 6.405 11.9408 5.7225C11.76 5.43667 11.5617 5.1625 11.3517 4.90583C11.2 4.71917 11.2292 4.445 11.4158 4.2875C11.6025 4.13583 11.8767 4.15917 12.0342 4.35167C12.2617 4.63167 12.4833 4.935 12.6817 5.25C13.3 6.2125 13.3 7.78167 12.6817 8.75C11.2583 10.9783 9.1875 12.2617 7 12.2617Z" fill="#777F90"/>
<path d="M7.40251 9.49083C7.19834 9.49083 7.01167 9.345 6.97084 9.135C6.92417 8.89583 7.08167 8.66833 7.32084 8.6275C7.96251 8.51083 8.49917 7.97417 8.61584 7.3325C8.66251 7.09333 8.89001 6.94167 9.12917 6.9825C9.36834 7.02917 9.52584 7.25667 9.47917 7.49583C9.29251 8.505 8.48751 9.30417 7.48417 9.49083C7.45501 9.485 7.43167 9.49083 7.40251 9.49083Z" fill="#777F90"/>
<path d="M1.16669 13.2708C1.05586 13.2708 0.945027 13.23 0.857527 13.1425C0.68836 12.9733 0.68836 12.6933 0.857527 12.5242L5.21503 8.16667C5.38419 7.9975 5.66419 7.9975 5.83336 8.16667C6.00253 8.33583 6.00253 8.61583 5.83336 8.785L1.47586 13.1425C1.38836 13.23 1.27753 13.2708 1.16669 13.2708Z" fill="#777F90"/>
<path d="M8.47584 5.96167C8.365 5.96167 8.25417 5.92083 8.16667 5.83333C7.9975 5.66417 7.9975 5.38417 8.16667 5.215L12.5242 0.8575C12.6933 0.688333 12.9733 0.688333 13.1425 0.8575C13.3117 1.02667 13.3117 1.30667 13.1425 1.47583L8.785 5.83333C8.6975 5.92083 8.58667 5.96167 8.47584 5.96167Z" fill="#777F90"/>
</svg>
