<svg width="14" height="14" viewBox="0 0 14 14" fill="none" xmlns="http://www.w3.org/2000/svg">
<path d="M7.00002 9.52583C5.60585 9.52583 4.47418 8.39417 4.47418 7C4.47418 5.60583 5.60585 4.47417 7.00002 4.47417C8.39418 4.47417 9.52585 5.60583 9.52585 7C9.52585 8.39417 8.39418 9.52583 7.00002 9.52583ZM7.00002 5.34917C6.09002 5.34917 5.34918 6.09 5.34918 7C5.34918 7.91 6.09002 8.65083 7.00002 8.65083C7.91002 8.65083 8.65085 7.91 8.65085 7C8.65085 6.09 7.91002 5.34917 7.00002 5.34917Z" fill="#777F90"/>
<path d="M7 12.2617C4.80667 12.2617 2.73584 10.9783 1.3125 8.75C0.694172 7.7875 0.694172 6.21833 1.3125 5.25C2.74167 3.02167 4.8125 1.73833 7 1.73833C9.1875 1.73833 11.2583 3.02167 12.6817 5.25C13.3 6.2125 13.3 7.78167 12.6817 8.75C11.2583 10.9783 9.1875 12.2617 7 12.2617ZM7 2.61333C5.11584 2.61333 3.31334 3.745 2.05334 5.7225C1.61584 6.405 1.61584 7.595 2.05334 8.2775C3.31334 10.255 5.11584 11.3867 7 11.3867C8.88417 11.3867 10.6867 10.255 11.9467 8.2775C12.3842 7.595 12.3842 6.405 11.9467 5.7225C10.6867 3.745 8.88417 2.61333 7 2.61333Z" fill="#777F90"/>
</svg>
