<svg width="21" height="21" viewBox="0 0 21 21" fill="none" xmlns="http://www.w3.org/2000/svg">
<path fill-rule="evenodd" clip-rule="evenodd" d="M14.7578 12.1175C16.1786 12.1175 17.3344 13.2676 17.3344 14.6809C17.3344 16.0943 16.1786 17.2444 14.7578 17.2444C13.3361 17.2444 12.1794 16.0943 12.1794 14.6809C12.1794 13.2676 13.3361 12.1175 14.7578 12.1175ZM14.7578 13.3595C14.0209 13.3595 13.4214 13.9523 13.4214 14.6809C13.4214 15.4104 14.0209 16.0024 14.7578 16.0024C15.4938 16.0024 16.0925 15.4104 16.0925 14.6809C16.0925 13.9523 15.4938 13.3595 14.7578 13.3595ZM8.70721 14.0921C9.04999 14.0921 9.32819 14.3703 9.32819 14.7131C9.32819 15.0559 9.04999 15.3341 8.70721 15.3341H3.49009C3.14731 15.3341 2.86911 15.0559 2.86911 14.7131C2.86911 14.3703 3.14731 14.0921 3.49009 14.0921H8.70721ZM5.42236 4.07947C6.844 4.07947 7.99986 5.23036 7.99986 6.64373C7.99986 8.05709 6.844 9.20633 5.42236 9.20633C4.00154 9.20633 2.84485 8.05709 2.84485 6.64373C2.84485 5.23036 4.00154 4.07947 5.42236 4.07947ZM5.42236 5.32144C4.68628 5.32144 4.08682 5.91427 4.08682 6.64373C4.08682 7.37235 4.68628 7.96436 5.42236 7.96436C6.15926 7.96436 6.75789 7.37235 6.75789 6.64373C6.75789 5.91427 6.15926 5.32144 5.42236 5.32144ZM16.2508 6.06695C16.5936 6.06695 16.8718 6.34516 16.8718 6.68794C16.8718 7.03073 16.5936 7.30893 16.2508 7.30893H11.0345C10.6917 7.30893 10.4135 7.03073 10.4135 6.68794C10.4135 6.34516 10.6917 6.06695 11.0345 6.06695H16.2508Z" fill="#111111"/>
</svg>
