<svg width="17" height="17" viewBox="0 0 17 17" fill="none" xmlns="http://www.w3.org/2000/svg">
<path d="M8.5 13.2812C8.20958 13.2812 7.96875 13.0404 7.96875 12.75V10.625C7.96875 10.3346 8.20958 10.0938 8.5 10.0938C8.79042 10.0938 9.03125 10.3346 9.03125 10.625V12.75C9.03125 13.0404 8.79042 13.2812 8.5 13.2812Z" fill="#777F90"/>
<path d="M12.4666 15.98H4.53331C3.24414 15.98 2.06831 14.9884 1.85581 13.7205L0.913722 8.07504C0.757889 7.1967 1.18997 6.07045 1.89122 5.51087L6.79997 1.57962C7.74914 0.81462 9.24372 0.821703 10.2 1.5867L15.1087 5.51087C15.8029 6.07045 16.2279 7.1967 16.0862 8.07504L15.1441 13.7134C14.9316 14.9671 13.7275 15.98 12.4666 15.98ZM8.49289 2.07545C8.11747 2.07545 7.74206 2.18879 7.46581 2.40837L2.55706 6.3467C2.16039 6.66545 1.87706 7.40212 1.96206 7.90504L2.90414 13.5434C3.03164 14.2871 3.77539 14.9175 4.53331 14.9175H12.4666C13.2246 14.9175 13.9683 14.2871 14.0958 13.5363L15.0379 7.89795C15.1158 7.40212 14.8325 6.65129 14.4429 6.33962L9.53414 2.41545C9.25081 2.18879 8.86831 2.07545 8.49289 2.07545Z" fill="#777F90"/>
</svg>
