<svg width="14" height="13" viewBox="0 0 14 13" fill="none" xmlns="http://www.w3.org/2000/svg">
<path d="M8.52143 12.1442C8.34268 12.1442 8.17476 12.025 8.12601 11.8409C8.06643 11.6242 8.19643 11.4021 8.41851 11.3425C10.6177 10.763 12.1506 8.76962 12.1506 6.49462C12.1506 3.73212 9.90268 1.48421 7.14018 1.48421C4.79476 1.48421 3.25643 2.85462 2.53601 3.68337H4.12851C4.35059 3.68337 4.53476 3.86754 4.53476 4.08962C4.53476 4.31171 4.35601 4.50129 4.12851 4.50129H1.72893C1.70184 4.50129 1.65309 4.49587 1.61518 4.48504C1.56643 4.46879 1.52309 4.44712 1.48518 4.42004C1.43643 4.38754 1.39851 4.34421 1.37143 4.29546C1.34434 4.24671 1.32268 4.18712 1.31726 4.12754C1.31726 4.11129 1.31726 4.10046 1.31726 4.08421V1.62504C1.31726 1.40296 1.50143 1.21879 1.72351 1.21879C1.94559 1.21879 2.12976 1.40296 2.12976 1.62504V2.91962C3.01268 1.97171 4.67559 0.677124 7.14018 0.677124C10.3523 0.677124 12.9631 3.28796 12.9631 6.50004C12.9631 9.14337 11.181 11.4617 8.62434 12.1334C8.59184 12.1388 8.55393 12.1442 8.52143 12.1442Z" fill="#EAEAEB"/>
<path d="M6.75559 12.3121C6.74476 12.3121 6.73393 12.3067 6.72851 12.3067C6.14351 12.2687 5.56934 12.1388 5.02768 11.9275C4.87059 11.8679 4.76226 11.7108 4.76768 11.5429C4.76768 11.4942 4.77851 11.4454 4.79476 11.4021C4.87601 11.1962 5.11976 11.0933 5.32018 11.1692C5.79143 11.3533 6.28434 11.4617 6.78268 11.4996C6.99393 11.5104 7.16184 11.6946 7.16184 11.9113L7.15643 11.9329C7.14559 12.1442 6.96684 12.3121 6.75559 12.3121ZM3.77101 11.1475C3.67893 11.1475 3.59226 11.115 3.51643 11.0608C3.06143 10.6925 2.66059 10.2646 2.33559 9.78792C2.28684 9.7175 2.25976 9.64167 2.25976 9.56042C2.25976 9.425 2.32476 9.30042 2.43851 9.22458C2.61726 9.1 2.87726 9.14875 3.00184 9.32208C3.00184 9.3275 3.00184 9.3275 3.00184 9.3275C3.00726 9.33292 3.01268 9.34375 3.01809 9.34917C3.29976 9.75542 3.64101 10.1183 4.02559 10.4217C4.11768 10.4975 4.17726 10.6112 4.17726 10.7358C4.17726 10.8279 4.15018 10.92 4.09059 10.9958C4.00934 11.0933 3.89559 11.1475 3.77101 11.1475ZM1.96184 8.50417C1.78309 8.50417 1.62601 8.39042 1.57726 8.2225C1.40393 7.66458 1.31726 7.085 1.31726 6.5V6.49458C1.32268 6.2725 1.50143 6.09375 1.72351 6.09375C1.94559 6.09375 2.12976 6.27792 2.12976 6.5C2.12976 7.00917 2.20559 7.5075 2.35184 7.97875C2.36268 8.02208 2.36809 8.06 2.36809 8.10333C2.36809 8.27667 2.25434 8.43375 2.08101 8.48792C2.04309 8.49875 2.00518 8.50417 1.96184 8.50417Z" fill="#EAEAEB"/>
</svg>
