<svg width="18" height="18" viewBox="0 0 18 18" fill="none" xmlns="http://www.w3.org/2000/svg">
<path fill-rule="evenodd" clip-rule="evenodd" d="M8.38317 0.423584C12.8294 0.423584 16.4461 4.04021 16.4461 8.48647C16.4461 10.5842 15.641 12.4974 14.3236 13.9333L16.9159 16.5201C17.1585 16.7627 17.1593 17.1552 16.9167 17.3978C16.7958 17.5203 16.636 17.5808 16.477 17.5808C16.3189 17.5808 16.1599 17.5203 16.0382 17.3994L13.4147 14.7833C12.0346 15.8885 10.2848 16.5502 8.38317 16.5502C3.93691 16.5502 0.319458 12.9327 0.319458 8.48647C0.319458 4.04021 3.93691 0.423584 8.38317 0.423584ZM8.38317 1.66556C4.62165 1.66556 1.56143 4.72495 1.56143 8.48647C1.56143 12.248 4.62165 15.3082 8.38317 15.3082C12.1439 15.3082 15.2041 12.248 15.2041 8.48647C15.2041 4.72495 12.1439 1.66556 8.38317 1.66556Z" fill="#9CA4AB"/>
</svg>
