<svg width="17" height="17" viewBox="0 0 17 17" fill="none" xmlns="http://www.w3.org/2000/svg">
<path d="M8.14584 15.4062C4.14375 15.4062 0.885422 12.1479 0.885422 8.14579C0.885422 4.14371 4.14375 0.885376 8.14584 0.885376C12.1479 0.885376 15.4063 4.14371 15.4063 8.14579C15.4063 12.1479 12.1479 15.4062 8.14584 15.4062ZM8.14584 1.94788C4.72459 1.94788 1.94792 4.73163 1.94792 8.14579C1.94792 11.56 4.72459 14.3437 8.14584 14.3437C11.5671 14.3437 14.3438 11.56 14.3438 8.14579C14.3438 4.73163 11.5671 1.94788 8.14584 1.94788Z" fill="white"/>
<path d="M15.5833 16.1146C15.4488 16.1146 15.3142 16.065 15.2079 15.9588L13.7913 14.5421C13.5858 14.3367 13.5858 13.9967 13.7913 13.7913C13.9967 13.5859 14.3367 13.5859 14.5421 13.7913L15.9588 15.2079C16.1642 15.4134 16.1642 15.7534 15.9588 15.9588C15.8525 16.065 15.7179 16.1146 15.5833 16.1146Z" fill="white"/>
</svg>
