<svg width="14" height="14" viewBox="0 0 14 14" fill="none" xmlns="http://www.w3.org/2000/svg">
<path d="M10.6109 10.3541H4.39835C3.82085 10.3541 3.26668 10.1091 2.87585 9.6833C2.48502 9.25746 2.28669 8.68579 2.33335 8.10829L2.81752 2.29829C2.83502 2.11746 2.77085 1.94246 2.64835 1.8083C2.52585 1.67413 2.35668 1.60413 2.17585 1.60413H1.16669C0.92752 1.60413 0.729187 1.40579 0.729187 1.16663C0.729187 0.927459 0.92752 0.729126 1.16669 0.729126H2.18169C2.60752 0.729126 3.01002 0.909957 3.29585 1.21912C3.45335 1.39412 3.57002 1.5983 3.63418 1.8258H10.92C11.5092 1.8258 12.0517 2.05913 12.4484 2.47913C12.8392 2.90496 13.0375 3.45913 12.9909 4.04829L12.6759 8.42329C12.6117 9.49079 11.6784 10.3541 10.6109 10.3541ZM3.66335 2.69496L3.20835 8.17829C3.17919 8.51662 3.29002 8.83745 3.51752 9.08828C3.74502 9.33912 4.06002 9.47329 4.39835 9.47329H10.6109C11.2175 9.47329 11.7659 8.95996 11.8125 8.3533L12.1275 3.9783C12.1508 3.63413 12.04 3.30746 11.8125 3.0683C11.585 2.8233 11.27 2.68912 10.9259 2.68912H3.66335V2.69496Z" fill="#04B888"/>
<path d="M9.47917 13.2708C8.8375 13.2708 8.3125 12.7458 8.3125 12.1042C8.3125 11.4625 8.8375 10.9375 9.47917 10.9375C10.1208 10.9375 10.6458 11.4625 10.6458 12.1042C10.6458 12.7458 10.1208 13.2708 9.47917 13.2708ZM9.47917 11.8125C9.31583 11.8125 9.1875 11.9408 9.1875 12.1042C9.1875 12.2675 9.31583 12.3958 9.47917 12.3958C9.6425 12.3958 9.77083 12.2675 9.77083 12.1042C9.77083 11.9408 9.6425 11.8125 9.47917 11.8125Z" fill="#04B888"/>
<path d="M4.81248 13.2708C4.17081 13.2708 3.64581 12.7458 3.64581 12.1042C3.64581 11.4625 4.17081 10.9375 4.81248 10.9375C5.45415 10.9375 5.97915 11.4625 5.97915 12.1042C5.97915 12.7458 5.45415 13.2708 4.81248 13.2708ZM4.81248 11.8125C4.64915 11.8125 4.52081 11.9408 4.52081 12.1042C4.52081 12.2675 4.64915 12.3958 4.81248 12.3958C4.97581 12.3958 5.10415 12.2675 5.10415 12.1042C5.10415 11.9408 4.97581 11.8125 4.81248 11.8125Z" fill="#04B888"/>
<path d="M12.25 5.10413H5.25C5.01083 5.10413 4.8125 4.90579 4.8125 4.66663C4.8125 4.42746 5.01083 4.22913 5.25 4.22913H12.25C12.4892 4.22913 12.6875 4.42746 12.6875 4.66663C12.6875 4.90579 12.4892 5.10413 12.25 5.10413Z" fill="#04B888"/>
</svg>
