<svg width="24" height="25" viewBox="0 0 24 25" fill="none" xmlns="http://www.w3.org/2000/svg">
<path d="M9.9898 22.9568C9.9398 22.9568 9.8898 22.9568 9.8398 22.9368C6.0098 22.1568 2.8998 19.3368 1.7398 15.5968C1.6198 15.1968 1.8398 14.7768 2.2298 14.6568C2.6298 14.5368 3.0498 14.7568 3.1698 15.1468C4.1698 18.3668 6.8398 20.7868 10.1398 21.4568C10.5498 21.5368 10.8098 21.9368 10.7198 22.3468C10.6498 22.7068 10.3298 22.9568 9.9898 22.9568Z" fill="#04B888"/>
<path d="M21.9502 12.1367C21.5702 12.1367 21.2402 11.8467 21.2002 11.4667C20.7202 6.72674 16.7602 3.15674 12.0002 3.15674C7.23022 3.15674 3.28022 6.72674 2.80022 11.4567C2.76022 11.8667 2.40022 12.1767 1.98022 12.1267C1.57022 12.0867 1.27022 11.7167 1.31022 11.3067C1.87022 5.80674 6.47022 1.65674 12.0002 1.65674C17.5402 1.65674 22.1402 5.80674 22.6902 11.3067C22.7302 11.7167 22.4302 12.0867 22.0202 12.1267C22.0002 12.1367 21.9702 12.1367 21.9502 12.1367Z" fill="#04B888"/>
<path d="M14.0101 22.9567C13.6601 22.9567 13.3501 22.7167 13.2801 22.3567C13.2001 21.9467 13.4601 21.5567 13.8601 21.4767C17.1401 20.8067 19.8101 18.4067 20.8201 15.2067C20.9401 14.8067 21.3701 14.5867 21.7601 14.7167C22.1601 14.8367 22.3701 15.2667 22.2501 15.6567C21.0701 19.3767 17.9701 22.1667 14.1601 22.9467C14.1101 22.9467 14.0601 22.9567 14.0101 22.9567Z" fill="#04B888"/>
</svg>
