<svg width="10" height="14" viewBox="0 0 10 14" fill="none" xmlns="http://www.w3.org/2000/svg">
<path d="M5 13.5C4.59619 13.5 4.19239 13.343 3.88665 13.0347L0.125469 9.24295C-0.0418229 9.07429 -0.0418229 8.79514 0.125469 8.62649C0.29276 8.45784 0.569657 8.45784 0.736948 8.62649L4.49813 12.4183C4.77502 12.6974 5.22498 12.6974 5.50187 12.4183L9.26305 8.62649C9.43034 8.45784 9.70724 8.45784 9.87453 8.62649C10.0418 8.79514 10.0418 9.07429 9.87453 9.24295L6.11335 13.0347C5.80761 13.343 5.40381 13.5 5 13.5Z" fill="#21577A"/>
<path d="M9.56879 5.5C9.45919 5.5 9.34958 5.45928 9.26305 5.37202L5.50187 1.57912C5.22498 1.29988 4.77502 1.29988 4.49813 1.57912L0.736948 5.37202C0.569657 5.54072 0.29276 5.54072 0.125469 5.37202C-0.0418229 5.20332 -0.0418229 4.92408 0.125469 4.75538L3.88665 0.962478C4.49812 0.345841 5.49611 0.345841 6.11335 0.962478L9.87453 4.75538C10.0418 4.92408 10.0418 5.20332 9.87453 5.37202C9.788 5.45346 9.6784 5.5 9.56879 5.5Z" fill="#21577A"/>
</svg>
