<svg width="17" height="15" viewBox="0 0 17 15" fill="none" xmlns="http://www.w3.org/2000/svg">
<path d="M12.4666 14.98H4.53331C3.24414 14.98 2.06831 13.9884 1.85581 12.7205L0.913722 7.07504C0.757889 6.1967 1.18997 5.07045 1.89122 4.51087L6.79997 0.57962C7.74914 -0.18538 9.24372 -0.178297 10.2 0.586703L15.1087 4.51087C15.8029 5.07045 16.2279 6.1967 16.0862 7.07504L15.1441 12.7134C14.9316 13.9671 13.7275 14.98 12.4666 14.98ZM8.49289 1.07545C8.11747 1.07545 7.74206 1.18879 7.46581 1.40837L2.55706 5.3467C2.16039 5.66545 1.87706 6.40212 1.96206 6.90504L2.90414 12.5434C3.03164 13.2871 3.77539 13.9175 4.53331 13.9175H12.4666C13.2246 13.9175 13.9683 13.2871 14.0958 12.5363L15.0379 6.89795C15.1158 6.40212 14.8325 5.65129 14.4429 5.33962L9.53414 1.41545C9.25081 1.18879 8.86831 1.07545 8.49289 1.07545Z" fill="white"/>
</svg>
